<svg width="202" height="124" viewBox="0 0 202 124" fill="none" xmlns="http://www.w3.org/2000/svg">
<path d="M84.147 9.79239L86.4849 8.43824L101.036 0L115.587 8.43824L130.137 16.8877V33.4172L120.563 27.844V22.4386L110.799 16.7758L101.036 11.1018L91.2721 16.7758L84.147 20.9054V9.79239Z" fill="#DC0000"/>
<path d="M103.665 54.8988L110.779 50.7692L120.542 45.1064V38.9512L130.117 44.5244V50.6573L115.566 59.1067L113.239 60.4608L103.665 54.8988Z" fill="#DC0000"/>
<path d="M101.02 67.5445L86.4694 59.1062L71.9186 50.6568V33.7691V16.8814L81.4929 11.3193V22.4323V33.7691V38.3911V45.1059L91.2566 50.7687L91.3568 50.8247L101.02 56.4427L110.595 61.9936L101.02 67.5445Z" fill="black"/>
<path d="M93.7213 12.7803H84.147V43.2766H93.7213V12.7803Z" fill="#DC0000"/>
<path d="M118.047 52.1157L113.26 60.4532L84.147 43.2746L88.9342 34.9482L118.047 52.1157Z" fill="#DC0000"/>
<path d="M130.126 49.1548L102.271 32.9274V21.8145L130.126 38.0419V49.1548Z" fill="#DC0000"/>
<path d="M24.055 124H0V95.7881H6.41327V117.552H24.0445L24.055 124Z" fill="black"/>
<path d="M55.7102 124H39.2775L36.4704 117.552H45.6803L40.6759 106.2L32.8433 124H25.652V117.552H28.5011L38.079 95.7881H43.2937L55.7102 124Z" fill="black"/>
<path d="M83.3574 124H76.9441L63.7181 107.997V124H57.3048V95.7881H63.7286L76.9441 111.77V95.7881H83.3574V124Z" fill="black"/>
<path d="M113.002 123.995H98.9768C95.0973 123.995 91.796 122.621 89.052 119.862C86.3079 117.114 84.9412 113.784 84.9412 109.884C84.9412 105.994 86.3079 102.664 89.052 99.9054C91.7855 97.1572 95.0973 95.7725 98.9768 95.7725H113.002V102.22H98.9768C96.8635 102.22 95.0657 102.971 93.5833 104.461C92.1009 105.952 91.3544 107.759 91.3544 109.884C91.3544 112.008 92.1009 113.816 93.5833 115.306C95.0657 116.796 96.8635 117.547 98.9768 117.547H106.589V113.118H102.583L99.7758 106.67H113.002V123.995Z" fill="#DC0000"/>
<path d="M144.694 124H128.262L125.455 117.552H134.665L129.66 106.2L121.827 124H114.636V117.552H117.485L127.063 95.7881H132.278L144.694 124Z" fill="#DC0000"/>
<path d="M176.347 124H169.934V111.22L163.321 123.989H159.315L152.702 111.22V123.989H146.289V95.7881H152.713L161.323 113.113L169.934 95.7881H176.358V124H176.347Z" fill="#DC0000"/>
<path d="M202 124H177.956V95.7881H202V102.236H184.369V106.665H197.994V113.113H184.369V117.541H202V124Z" fill="#DC0000"/>
</svg>
